<svg width="70" height="71" viewBox="0 0 70 71" fill="none" xmlns="http://www.w3.org/2000/svg">
<path d="M69.5 35.5C69.5 54.8367 54.0472 70.5 35 70.5C15.9528 70.5 0.5 54.8367 0.5 35.5C0.5 16.1633 15.9528 0.5 35 0.5C54.0472 0.5 69.5 16.1633 69.5 35.5Z" fill="#F9F5F0" stroke="black"/>
<ellipse cx="24.5" cy="24" rx="6.5" ry="6" fill="black"/>
<ellipse cx="46.5" cy="24" rx="6.5" ry="6" fill="black"/>
<circle cx="27.5" cy="24.5" r="1.5" fill="white"/>
<circle cx="48.5" cy="24.5" r="1.5" fill="white"/>
<ellipse cx="41.5" cy="49.5" rx="12.5" ry="10.5" fill="black"/>
<ellipse cx="47.2686" cy="54.0714" rx="5.5" ry="7.5" transform="rotate(-49 47.2686 54.0714)" fill="#FB0000"/>
<path d="M46.6536 48.5757C47.0386 48.7354 47.2381 48.9949 47.5528 49.2396C47.7793 49.4158 47.8659 49.7408 48.0587 49.9551C48.231 50.1465 48.2211 50.568 48.2747 50.8092C48.3467 51.1333 48.2698 51.4825 48.0716 51.7373C47.8324 52.0449 47.4104 52.2328 47.0597 52.4174C46.7785 52.5654 46.7305 52.8256 46.5376 53.0426C46.2902 53.3209 46.086 53.728 45.8994 54.0546C45.7473 54.3208 45.8938 54.598 45.9542 54.8699C46.0275 55.1997 46.3635 55.2567 46.3635 55.5951C46.3635 55.7646 47.0265 55.9431 47.2047 55.9431C48.1164 55.9431 49.0052 56.1253 49.6702 56.7553C49.958 57.028 50.1342 57.2183 50.1342 57.6545C50.1342 57.901 50.0775 58.0205 49.9022 58.2056C49.7921 58.3218 49.7707 58.4787 49.6411 58.5794C49.2876 58.8544 48.8399 58.9778 48.5099 59.3078C48.3084 59.5093 47.9298 59.6971 47.9298 60.0039" stroke="black" stroke-linecap="round"/>
<path d="M46.6536 48.2857C46.27 47.9835 46.3276 47.5756 46.1315 47.1835" stroke="black" stroke-linecap="round"/>
</svg>
